<mxfile host="app.diagrams.net" agent="Mozilla/5.0 (Windows NT 10.0; Win64; x64) AppleWebKit/537.36 (KHTML, like Gecko) Chrome/133.0.0.0 Safari/537.36" version="26.0.14">
  <diagram id="jdAYR8Kx3HubP2iDP4ij" name="Página-1">
    <mxGraphModel dx="1434" dy="772" grid="1" gridSize="10" guides="1" tooltips="1" connect="1" arrows="1" fold="1" page="1" pageScale="1" pageWidth="827" pageHeight="1169" math="0" shadow="0">
      <root>
        <mxCell id="0" />
        <mxCell id="1" parent="0" />
        <mxCell id="ezzlgpMTL_L1c-S2DGUZ-10" style="edgeStyle=orthogonalEdgeStyle;rounded=0;orthogonalLoop=1;jettySize=auto;html=1;exitX=1;exitY=0.5;exitDx=0;exitDy=0;" parent="1" source="ezzlgpMTL_L1c-S2DGUZ-3" target="ezzlgpMTL_L1c-S2DGUZ-7" edge="1">
          <mxGeometry relative="1" as="geometry" />
        </mxCell>
        <mxCell id="ezzlgpMTL_L1c-S2DGUZ-3" value="Pessoa" style="whiteSpace=wrap;html=1;align=center;" parent="1" vertex="1">
          <mxGeometry x="570" y="125" width="100" height="40" as="geometry" />
        </mxCell>
        <mxCell id="ezzlgpMTL_L1c-S2DGUZ-23" style="edgeStyle=orthogonalEdgeStyle;rounded=0;orthogonalLoop=1;jettySize=auto;html=1;exitX=0;exitY=0.5;exitDx=0;exitDy=0;entryX=0.5;entryY=0;entryDx=0;entryDy=0;" parent="1" source="ezzlgpMTL_L1c-S2DGUZ-4" target="ezzlgpMTL_L1c-S2DGUZ-7" edge="1">
          <mxGeometry relative="1" as="geometry" />
        </mxCell>
        <mxCell id="ezzlgpMTL_L1c-S2DGUZ-4" value="Banco" style="whiteSpace=wrap;html=1;align=center;" parent="1" vertex="1">
          <mxGeometry x="70" y="277.5" width="100" height="40" as="geometry" />
        </mxCell>
        <mxCell id="ezzlgpMTL_L1c-S2DGUZ-9" style="edgeStyle=orthogonalEdgeStyle;rounded=0;orthogonalLoop=1;jettySize=auto;html=1;exitX=0;exitY=0.5;exitDx=0;exitDy=0;entryX=1;entryY=0.5;entryDx=0;entryDy=0;" parent="1" source="ezzlgpMTL_L1c-S2DGUZ-6" target="ezzlgpMTL_L1c-S2DGUZ-7" edge="1">
          <mxGeometry relative="1" as="geometry" />
        </mxCell>
        <mxCell id="ezzlgpMTL_L1c-S2DGUZ-6" value="Empresa" style="whiteSpace=wrap;html=1;align=center;" parent="1" vertex="1">
          <mxGeometry x="600" y="360" width="100" height="40" as="geometry" />
        </mxCell>
        <mxCell id="ezzlgpMTL_L1c-S2DGUZ-12" style="edgeStyle=orthogonalEdgeStyle;rounded=0;orthogonalLoop=1;jettySize=auto;html=1;exitX=0.5;exitY=1;exitDx=0;exitDy=0;entryX=0.5;entryY=0;entryDx=0;entryDy=0;" parent="1" source="ezzlgpMTL_L1c-S2DGUZ-7" target="ezzlgpMTL_L1c-S2DGUZ-11" edge="1">
          <mxGeometry relative="1" as="geometry" />
        </mxCell>
        <mxCell id="ezzlgpMTL_L1c-S2DGUZ-7" value="U" style="ellipse;whiteSpace=wrap;html=1;aspect=fixed;" parent="1" vertex="1">
          <mxGeometry x="410" y="360" width="40" height="40" as="geometry" />
        </mxCell>
        <mxCell id="ezzlgpMTL_L1c-S2DGUZ-11" value="Dono" style="rounded=0;whiteSpace=wrap;html=1;" parent="1" vertex="1">
          <mxGeometry x="380" y="670" width="100" height="40" as="geometry" />
        </mxCell>
        <mxCell id="ezzlgpMTL_L1c-S2DGUZ-17" style="edgeStyle=orthogonalEdgeStyle;rounded=0;orthogonalLoop=1;jettySize=auto;html=1;exitX=0.5;exitY=1;exitDx=0;exitDy=0;entryX=0;entryY=0.75;entryDx=0;entryDy=0;" parent="1" source="ezzlgpMTL_L1c-S2DGUZ-15" target="ezzlgpMTL_L1c-S2DGUZ-3" edge="1">
          <mxGeometry relative="1" as="geometry" />
        </mxCell>
        <mxCell id="ezzlgpMTL_L1c-S2DGUZ-15" value="cpf" style="ellipse;whiteSpace=wrap;html=1;align=center;fontStyle=4;" parent="1" vertex="1">
          <mxGeometry x="480" y="55" width="50" height="25" as="geometry" />
        </mxCell>
        <mxCell id="ezzlgpMTL_L1c-S2DGUZ-18" style="edgeStyle=orthogonalEdgeStyle;rounded=0;orthogonalLoop=1;jettySize=auto;html=1;exitX=0.5;exitY=1;exitDx=0;exitDy=0;entryX=0.353;entryY=0.012;entryDx=0;entryDy=0;entryPerimeter=0;" parent="1" source="ezzlgpMTL_L1c-S2DGUZ-16" target="ezzlgpMTL_L1c-S2DGUZ-3" edge="1">
          <mxGeometry relative="1" as="geometry" />
        </mxCell>
        <mxCell id="ezzlgpMTL_L1c-S2DGUZ-16" value="cnh" style="ellipse;whiteSpace=wrap;html=1;align=center;fontStyle=4;" parent="1" vertex="1">
          <mxGeometry x="540" y="20" width="50" height="30" as="geometry" />
        </mxCell>
        <mxCell id="ezzlgpMTL_L1c-S2DGUZ-32" style="edgeStyle=orthogonalEdgeStyle;rounded=0;orthogonalLoop=1;jettySize=auto;html=1;exitX=0.5;exitY=1;exitDx=0;exitDy=0;entryX=0.953;entryY=0;entryDx=0;entryDy=0;entryPerimeter=0;" parent="1" source="ezzlgpMTL_L1c-S2DGUZ-19" target="ezzlgpMTL_L1c-S2DGUZ-3" edge="1">
          <mxGeometry relative="1" as="geometry" />
        </mxCell>
        <mxCell id="ezzlgpMTL_L1c-S2DGUZ-19" value="nome" style="ellipse;whiteSpace=wrap;html=1;align=center;fontStyle=4;" parent="1" vertex="1">
          <mxGeometry x="600" y="20" width="50" height="30" as="geometry" />
        </mxCell>
        <mxCell id="ezzlgpMTL_L1c-S2DGUZ-25" style="edgeStyle=orthogonalEdgeStyle;rounded=0;orthogonalLoop=1;jettySize=auto;html=1;exitX=0.5;exitY=1;exitDx=0;exitDy=0;" parent="1" source="ezzlgpMTL_L1c-S2DGUZ-24" target="ezzlgpMTL_L1c-S2DGUZ-4" edge="1">
          <mxGeometry relative="1" as="geometry" />
        </mxCell>
        <mxCell id="ezzlgpMTL_L1c-S2DGUZ-24" value="Bnome" style="ellipse;whiteSpace=wrap;html=1;align=center;fontStyle=4;" parent="1" vertex="1">
          <mxGeometry x="85" y="197.5" width="70" height="30" as="geometry" />
        </mxCell>
        <mxCell id="ezzlgpMTL_L1c-S2DGUZ-27" style="edgeStyle=orthogonalEdgeStyle;rounded=0;orthogonalLoop=1;jettySize=auto;html=1;exitX=0.5;exitY=1;exitDx=0;exitDy=0;entryX=1;entryY=0.5;entryDx=0;entryDy=0;" parent="1" source="ezzlgpMTL_L1c-S2DGUZ-26" target="ezzlgpMTL_L1c-S2DGUZ-4" edge="1">
          <mxGeometry relative="1" as="geometry" />
        </mxCell>
        <mxCell id="ezzlgpMTL_L1c-S2DGUZ-26" value="Bendereço" style="ellipse;whiteSpace=wrap;html=1;align=center;fontStyle=4;" parent="1" vertex="1">
          <mxGeometry x="195" y="217.5" width="85" height="30" as="geometry" />
        </mxCell>
        <mxCell id="ezzlgpMTL_L1c-S2DGUZ-30" style="edgeStyle=orthogonalEdgeStyle;rounded=0;orthogonalLoop=1;jettySize=auto;html=1;exitX=0.5;exitY=1;exitDx=0;exitDy=0;entryX=1;entryY=0.25;entryDx=0;entryDy=0;" parent="1" source="ezzlgpMTL_L1c-S2DGUZ-28" target="ezzlgpMTL_L1c-S2DGUZ-6" edge="1">
          <mxGeometry relative="1" as="geometry" />
        </mxCell>
        <mxCell id="ezzlgpMTL_L1c-S2DGUZ-28" value="Enome" style="ellipse;whiteSpace=wrap;html=1;align=center;fontStyle=4;" parent="1" vertex="1">
          <mxGeometry x="732.5" y="320" width="70" height="30" as="geometry" />
        </mxCell>
        <mxCell id="ezzlgpMTL_L1c-S2DGUZ-31" style="edgeStyle=orthogonalEdgeStyle;rounded=0;orthogonalLoop=1;jettySize=auto;html=1;exitX=0.5;exitY=0;exitDx=0;exitDy=0;entryX=1;entryY=0.75;entryDx=0;entryDy=0;" parent="1" source="ezzlgpMTL_L1c-S2DGUZ-29" target="ezzlgpMTL_L1c-S2DGUZ-6" edge="1">
          <mxGeometry relative="1" as="geometry" />
        </mxCell>
        <mxCell id="ezzlgpMTL_L1c-S2DGUZ-29" value="Eendereço" style="ellipse;whiteSpace=wrap;html=1;align=center;fontStyle=4;" parent="1" vertex="1">
          <mxGeometry x="700" y="450" width="85" height="30" as="geometry" />
        </mxCell>
        <mxCell id="ezzlgpMTL_L1c-S2DGUZ-35" style="edgeStyle=orthogonalEdgeStyle;rounded=0;orthogonalLoop=1;jettySize=auto;html=1;exitX=1;exitY=0;exitDx=0;exitDy=0;entryX=0.25;entryY=1;entryDx=0;entryDy=0;" parent="1" source="ezzlgpMTL_L1c-S2DGUZ-34" target="ezzlgpMTL_L1c-S2DGUZ-3" edge="1">
          <mxGeometry relative="1" as="geometry" />
        </mxCell>
        <mxCell id="ezzlgpMTL_L1c-S2DGUZ-34" value="Endereço" style="ellipse;whiteSpace=wrap;html=1;align=center;" parent="1" vertex="1">
          <mxGeometry x="500" y="197.5" width="80" height="45" as="geometry" />
        </mxCell>
      </root>
    </mxGraphModel>
  </diagram>
</mxfile>
